<svg width="27" height="26" viewBox="0 0 27 26" fill="none" xmlns="http://www.w3.org/2000/svg">
<path d="M1.11612 9.11612C0.627961 9.60427 0.627961 10.3957 1.11612 10.8839L9.07107 18.8388C9.55922 19.327 10.3507 19.327 10.8388 18.8388C11.327 18.3507 11.327 17.5592 10.8388 17.0711L3.76777 10L10.8388 2.92893C11.327 2.44077 11.327 1.64932 10.8388 1.16116C10.3507 0.673008 9.55922 0.673008 9.07107 1.16116L1.11612 9.11612ZM18 10V8.75H2V10L2 11.25H18V10ZM2 24L2 25.25H18V24V22.75H2V24ZM18 24V25.25C22.5563 25.25 26.25 21.5563 26.25 17H25H23.75C23.75 20.1756 21.1756 22.75 18 22.75V24ZM18 10V11.25C21.1756 11.25 23.75 13.8244 23.75 17H25H26.25C26.25 12.4437 22.5563 8.75 18 8.75V10Z" fill="black"/>
</svg>
