<svg width="37" height="32" viewBox="0 0 37 32" fill="none" xmlns="http://www.w3.org/2000/svg">
<path d="M20.4104 17.1833C20.4104 17.1833 19.5008 17.1833 18.3787 17.1833C17.2567 17.1833 16.3471 17.1833 16.3471 17.1833C16.3471 14.4904 17.2567 12.3074 18.3787 12.3074C19.5008 12.3074 20.4104 14.4904 20.4104 17.1833Z" fill="white"/>
<path d="M16.3471 17.1832C16.3471 17.1832 17.2567 17.1832 18.3788 17.1832C19.5008 17.1832 20.4104 17.1832 20.4104 17.1832C20.4104 19.8761 19.5008 22.0591 18.3788 22.0591C17.2567 22.0591 16.3471 19.8761 16.3471 17.1832Z" fill="white"/>
<path d="M14.0093 20.7527C14.0093 20.7527 14.4827 19.976 15.0667 19.0179C15.6506 18.0598 16.124 17.2831 16.124 17.2831C18.4235 18.6846 19.8141 20.5975 19.2302 21.5556C18.6462 22.5137 16.3087 22.1542 14.0093 20.7527Z" fill="white"/>
<path d="M16.1241 17.2832C16.1241 17.2832 15.6507 18.0599 15.0667 19.018C14.4828 19.9761 14.0094 20.7528 14.0094 20.7528C11.7099 19.3513 10.3193 17.4384 10.9032 16.4803C11.4872 15.5222 13.8247 15.8817 16.1241 17.2832Z" fill="white"/>
<path d="M22.7879 20.7527C22.7879 20.7527 22.3145 19.976 21.7306 19.0179C21.1466 18.0598 20.6732 17.2831 20.6732 17.2831C18.3737 18.6846 16.9831 20.5975 17.567 21.5556C18.151 22.5137 20.4885 22.1542 22.7879 20.7527Z" fill="white"/>
<path d="M20.6732 17.2832C20.6732 17.2832 21.1466 18.0599 21.7305 19.018C22.3145 19.9761 22.7879 20.7528 22.7879 20.7528C25.0874 19.3513 26.478 17.4384 25.894 16.4803C25.3101 15.5222 22.9726 15.8817 20.6732 17.2832Z" fill="white"/>
<path d="M20.7354 23.9405C20.7354 23.9405 19.8258 23.9405 18.7038 23.9405C17.5817 23.9405 16.6721 23.9405 16.6721 23.9405C16.6721 26.6334 17.5817 28.8164 18.7038 28.8164C19.8258 28.8164 20.7354 26.6334 20.7354 23.9405Z" fill="white"/>
<path d="M16.6722 23.9406C16.6722 23.9406 17.5818 23.9406 18.7038 23.9406C19.8259 23.9406 20.7355 23.9406 20.7355 23.9406C20.7355 21.2477 19.8259 19.0647 18.7038 19.0647C17.5818 19.0647 16.6722 21.2477 16.6722 23.9406Z" fill="white"/>
<path d="M23.113 20.3711C23.113 20.3711 22.6396 21.1478 22.0556 22.1059C21.4716 23.064 20.9982 23.8407 20.9982 23.8407C18.6988 22.4391 17.3081 20.5263 17.8921 19.5682C18.4761 18.6101 20.8135 18.9696 23.113 20.3711Z" fill="white"/>
<path d="M20.9982 23.8408C20.9982 23.8408 21.4716 23.0641 22.0556 22.106C22.6396 21.1479 23.113 20.3712 23.113 20.3712C25.4124 21.7728 26.8031 23.6856 26.2191 24.6437C25.6351 25.6018 23.2976 25.2424 20.9982 23.8408Z" fill="white"/>
<path d="M14.3345 20.3711C14.3345 20.3711 14.8079 21.1478 15.3918 22.1059C15.9758 23.064 16.4492 23.8407 16.4492 23.8407C18.7486 22.4391 20.1393 20.5263 19.5553 19.5682C18.9714 18.6101 16.6339 18.9696 14.3345 20.3711Z" fill="white"/>
<path d="M16.4492 23.8408C16.4492 23.8408 15.9758 23.0641 15.3918 22.106C14.8078 21.1479 14.3344 20.3712 14.3344 20.3712C12.035 21.7728 10.6443 23.6856 11.2283 24.6437C11.8123 25.6018 14.1497 25.2424 16.4492 23.8408Z" fill="white"/>
<path d="M18.2971 19.0586C19.0566 19.0586 19.6729 19.6742 19.6731 20.4336C19.6731 21.1932 19.0567 21.8096 18.2971 21.8096C17.5377 21.8094 16.9221 21.1931 16.9221 20.4336C16.9223 19.6743 17.5378 19.0588 18.2971 19.0586Z" fill="#FFE066" stroke="#FFE066" stroke-width="0.5"/>
<rect x="-0.820489" y="0.820489" width="1.64098" height="5.74343" rx="0.820489" transform="matrix(-1 0 0 1 27.8966 0)" fill="#FFC0CB" stroke="#FFE066" stroke-width="1.64098"/>
<rect x="-0.820489" y="0.820489" width="1.64098" height="5.74343" rx="0.820489" transform="matrix(-1 0 0 1 8.20488 0)" fill="#FFC0CB" stroke="#FFE066" stroke-width="1.64098"/>
<rect x="1" y="5.10254" width="34.922" height="25.8966" rx="4" stroke="#FFE066" stroke-width="2"/>
<line x1="0.820465" y1="9.66626" x2="35.281" y2="9.66626" stroke="#FFE066" stroke-width="2"/>
</svg>
