<svg width="37" height="32" viewBox="0 0 37 32" fill="none" xmlns="http://www.w3.org/2000/svg">
<path d="M20.4104 17.1832C20.4104 17.1832 19.5008 17.1832 18.3787 17.1832C17.2567 17.1832 16.3471 17.1832 16.3471 17.1832C16.3471 14.4903 17.2567 12.3073 18.3787 12.3073C19.5008 12.3073 20.4104 14.4903 20.4104 17.1832Z" fill="white"/>
<path d="M16.3471 17.1832C16.3471 17.1832 17.2567 17.1832 18.3788 17.1832C19.5008 17.1832 20.4104 17.1832 20.4104 17.1832C20.4104 19.8761 19.5008 22.0591 18.3788 22.0591C17.2567 22.0591 16.3471 19.8761 16.3471 17.1832Z" fill="white"/>
<path d="M14.0093 20.7525C14.0093 20.7525 14.4827 19.9758 15.0667 19.0177C15.6506 18.0596 16.124 17.2829 16.124 17.2829C18.4235 18.6845 19.8141 20.5973 19.2302 21.5554C18.6462 22.5135 16.3087 22.154 14.0093 20.7525Z" fill="white"/>
<path d="M16.1241 17.283C16.1241 17.283 15.6507 18.0596 15.0667 19.0177C14.4828 19.9758 14.0094 20.7525 14.0094 20.7525C11.7099 19.351 10.3193 17.4382 10.9032 16.4801C11.4872 15.5219 13.8247 15.8814 16.1241 17.283Z" fill="white"/>
<path d="M22.7879 20.7525C22.7879 20.7525 22.3145 19.9758 21.7306 19.0177C21.1466 18.0596 20.6732 17.2829 20.6732 17.2829C18.3737 18.6845 16.9831 20.5973 17.567 21.5554C18.151 22.5135 20.4885 22.154 22.7879 20.7525Z" fill="white"/>
<path d="M20.6732 17.283C20.6732 17.283 21.1466 18.0596 21.7305 19.0177C22.3145 19.9758 22.7879 20.7525 22.7879 20.7525C25.0874 19.351 26.478 17.4382 25.894 16.4801C25.3101 15.5219 22.9726 15.8814 20.6732 17.283Z" fill="white"/>
<path d="M20.7354 23.9404C20.7354 23.9404 19.8258 23.9404 18.7038 23.9404C17.5817 23.9404 16.6721 23.9404 16.6721 23.9404C16.6721 26.6333 17.5817 28.8163 18.7038 28.8163C19.8258 28.8163 20.7354 26.6333 20.7354 23.9404Z" fill="white"/>
<path d="M16.6722 23.9404C16.6722 23.9404 17.5818 23.9404 18.7038 23.9404C19.8259 23.9404 20.7355 23.9404 20.7355 23.9404C20.7355 21.2475 19.8259 19.0645 18.7038 19.0645C17.5818 19.0645 16.6722 21.2475 16.6722 23.9404Z" fill="white"/>
<path d="M14.3345 20.3711C14.3345 20.3711 14.8079 21.1478 15.3918 22.1059C15.9758 23.064 16.4492 23.8407 16.4492 23.8407C18.7486 22.4391 20.1393 20.5263 19.5553 19.5682C18.9714 18.6101 16.6339 18.9696 14.3345 20.3711Z" fill="white"/>
<path d="M16.4492 23.8407C16.4492 23.8407 15.9758 23.064 15.3918 22.1059C14.8078 21.1478 14.3344 20.3711 14.3344 20.3711C12.035 21.7726 10.6443 23.6855 11.2283 24.6436C11.8123 25.6017 14.1497 25.2422 16.4492 23.8407Z" fill="white"/>
<path d="M23.113 20.3711C23.113 20.3711 22.6396 21.1478 22.0556 22.1059C21.4716 23.064 20.9982 23.8407 20.9982 23.8407C18.6988 22.4391 17.3081 20.5263 17.8921 19.5682C18.4761 18.6101 20.8135 18.9696 23.113 20.3711Z" fill="white"/>
<path d="M20.9982 23.8407C20.9982 23.8407 21.4716 23.064 22.0556 22.1059C22.6396 21.1478 23.113 20.3711 23.113 20.3711C25.4124 21.7726 26.8031 23.6855 26.2191 24.6436C25.6351 25.6017 23.2976 25.2422 20.9982 23.8407Z" fill="white"/>
<ellipse cx="18.2974" cy="20.4338" rx="1.62531" ry="1.62531" fill="#FFE066"/>
<rect width="3.28196" height="7.3844" rx="1.64098" transform="matrix(-1 0 0 1 29.5376 0)" fill="white"/>
<rect width="3.28196" height="7.3844" rx="1.64098" transform="matrix(-1 0 0 1 9.84586 0)" fill="white"/>
<rect x="1" y="5.10245" width="34.922" height="25.8966" rx="4" stroke="white" stroke-width="2"/>
<line x1="0.820465" y1="9.66632" x2="35.281" y2="9.66632" stroke="white" stroke-width="2"/>
</svg>
