<svg width="284" height="170" viewBox="0 0 284 170" fill="none" xmlns="http://www.w3.org/2000/svg">
<mask id="path-1-inside-1_100_603" fill="white">
<path d="M274 0C279.523 0 284 4.47715 284 10V160C284 165.523 279.523 170 274 170H30.9998C25.477 170 20.9998 165.523 20.9998 160V32.1963L2.58765 27.9219C-0.507419 27.2031 -0.507425 22.7969 2.58765 22.0781L20.9998 17.8027V10C20.9998 4.47723 25.477 0.000132975 30.9998 0H274Z"/>
</mask>
<path d="M274 0C279.523 0 284 4.47715 284 10V160C284 165.523 279.523 170 274 170H30.9998C25.477 170 20.9998 165.523 20.9998 160V32.1963L2.58765 27.9219C-0.507419 27.2031 -0.507425 22.7969 2.58765 22.0781L20.9998 17.8027V10C20.9998 4.47723 25.477 0.000132975 30.9998 0H274Z" fill="#F7FFE8" fill-opacity="0.9"/>
<path d="M30.9998 170L30.9997 173H30.9998V170ZM20.9998 32.1963H23.9998V29.813L21.6782 29.274L20.9998 32.1963ZM2.58765 27.9219L1.90899 30.8441L1.90923 30.8442L2.58765 27.9219ZM2.58765 22.0781L1.90908 19.1559L1.90899 19.1559L2.58765 22.0781ZM20.9998 17.8027L21.6783 20.725L23.9998 20.1859V17.8027H20.9998ZM30.9998 0V-3H30.9997L30.9998 0ZM274 0V3C277.866 3 281 6.13401 281 10H284H287C287 2.8203 281.179 -3 274 -3V0ZM284 10H281V160H284H287V10H284ZM284 160H281C281 163.866 277.866 167 274 167V170V173C281.179 173 287 167.18 287 160H284ZM274 170V167H30.9998V170V173H274V170ZM30.9998 170L30.9998 167C27.1338 167 23.9998 163.866 23.9998 160H20.9998H17.9998C17.9998 167.18 23.8202 173 30.9997 173L30.9998 170ZM20.9998 160H23.9998V32.1963H20.9998H17.9998V160H20.9998ZM20.9998 32.1963L21.6782 29.274L3.26606 24.9996L2.58765 27.9219L1.90923 30.8442L20.3213 35.1186L20.9998 32.1963ZM2.58765 27.9219L3.26631 24.9996C3.23782 24.993 3.22228 24.9869 3.21696 24.9847C3.21167 24.9824 3.21332 24.9826 3.2196 24.9868C3.22581 24.9908 3.23373 24.9969 3.24206 25.0048C3.25029 25.0127 3.25711 25.0206 3.26238 25.0278C3.27294 25.0421 3.27389 25.0485 3.27185 25.0421C3.27086 25.039 3.26941 25.0335 3.26824 25.0258C3.26707 25.0181 3.26635 25.0094 3.26635 25C3.26635 24.9906 3.26707 24.9819 3.26824 24.9742C3.26941 24.9665 3.27086 24.961 3.27185 24.9579C3.27389 24.9514 3.27293 24.9579 3.26238 24.9722C3.25711 24.9794 3.25029 24.9873 3.24206 24.9952C3.23373 25.0031 3.22581 25.0092 3.21959 25.0132C3.21332 25.0174 3.21167 25.0176 3.21695 25.0153C3.22227 25.0131 3.23781 25.007 3.2663 25.0004L2.58765 22.0781L1.90899 19.1559C-4.28123 20.5935 -4.28117 29.4065 1.90899 30.8441L2.58765 27.9219ZM2.58765 22.0781L3.26621 25.0004L21.6783 20.725L20.9998 17.8027L20.3212 14.8805L1.90908 19.1559L2.58765 22.0781ZM20.9998 17.8027H23.9998V10H20.9998H17.9998V17.8027H20.9998ZM20.9998 10H23.9998C23.9998 6.13416 27.1338 3.00009 30.9998 3L30.9998 0L30.9997 -3C23.8202 -2.99983 17.9998 2.82031 17.9998 10H20.9998ZM30.9998 0V3H274V0V-3H30.9998V0Z" fill="#338D29" mask="url(#path-1-inside-1_100_603)"/>
</svg>
