<svg width="47" height="35" viewBox="0 0 47 35" fill="none" xmlns="http://www.w3.org/2000/svg">
<path d="M30.6702 0.305664C32.2609 0.43335 33.6375 1.50075 34.1458 3.03516L35.4368 6.93262H42.7063C44.9153 6.93277 46.7063 8.72357 46.7063 10.9326V30.9883C46.706 33.1971 44.9151 34.9881 42.7063 34.9883H4.73755C2.52857 34.9883 0.73781 33.1972 0.737549 30.9883V10.9326C0.737549 8.72348 2.52841 6.93262 4.73755 6.93262H12.0071L13.2981 3.03516C13.8404 1.39823 15.3705 0.292969 17.095 0.292969H30.3489L30.6702 0.305664ZM17.095 2.29297C16.2328 2.29297 15.4677 2.84561 15.1965 3.66406L13.678 8.24512C13.5568 8.61275 13.2297 8.88721 12.8323 8.92773L12.7297 8.93262H4.73755C3.63298 8.93262 2.73755 9.82805 2.73755 10.9326V30.9883C2.73781 32.0926 3.63314 32.9883 4.73755 32.9883H42.7063C43.8106 32.9881 44.706 32.0925 44.7063 30.9883V10.9326C44.7063 9.82814 43.8107 8.93277 42.7063 8.93262H34.7141C34.2635 8.93262 33.8821 8.63426 33.7571 8.22461L32.2473 3.66406C31.9931 2.89676 31.3045 2.36354 30.509 2.2998L30.3489 2.29297H17.095Z" fill="white"/>
<path d="M23.7213 10.73C28.8985 10.73 33.0962 14.9267 33.0963 20.104C33.0963 25.2813 28.8986 29.478 23.7213 29.478C18.5441 29.4778 14.3472 25.2812 14.3472 20.104C14.3473 14.9269 18.5442 10.7302 23.7213 10.73ZM23.7222 12.9351C19.7631 12.9351 16.5533 16.1449 16.5533 20.104C16.5533 24.0631 19.7631 27.2729 23.7222 27.2729C27.6812 27.2727 30.8902 24.063 30.8902 20.104C30.8902 16.145 27.6812 12.9353 23.7222 12.9351Z" fill="white"/>
<circle cx="39.2409" cy="12.9325" r="1.93986" fill="white"/>
</svg>
