<svg width="22" height="34" viewBox="0 0 22 34" fill="none" xmlns="http://www.w3.org/2000/svg">
<ellipse cx="15.0497" cy="6.97711" rx="1.51669" ry="4.24674" transform="rotate(20.3839 15.0497 6.97711)" fill="#77BC6F"/>
<ellipse cx="1.25152" cy="3.75457" rx="1.25152" ry="3.75457" transform="matrix(0.706078 0.708134 -0.708134 0.706078 18.1944 4.90967)" fill="#77BC6F"/>
<ellipse cx="1.25152" cy="3.75457" rx="1.25152" ry="3.75457" transform="matrix(-0.997165 0.0752494 0.0752483 0.997165 13.9727 3.34106)" fill="#77BC6F"/>
<path d="M16.9785 17.9101C14.7382 23.9393 6.46799 32.3157 5.63131 32.0049C4.79464 31.694 4.00092 19.9496 6.24124 13.9203C8.48157 7.89109 10.9184 9.55452 13.6026 10.5522C16.2869 11.5498 19.2189 11.8808 16.9785 17.9101Z" fill="#FFA14A"/>
<line x1="7.04211" y1="13.5097" x2="9.03308" y2="14.2495" stroke="#FF7B00" stroke-linecap="round"/>
<line x1="6.60961" y1="14.6737" x2="8.11253" y2="15.2322" stroke="#FF7B00" stroke-linecap="round"/>
<line x1="7.45457" y1="29.951" x2="6.92777" y2="29.7553" stroke="#FF7B00" stroke-linecap="round"/>
<line x1="8.37516" y1="28.9684" x2="7.3603" y2="28.5913" stroke="#FF7B00" stroke-linecap="round"/>
</svg>
