<svg width="32" height="32" viewBox="0 0 32 32" fill="none" xmlns="http://www.w3.org/2000/svg">
<path d="M15.8573 0.865541C19.2006 0.834112 21.937 3.51876 21.9686 6.86207C21.9753 7.57797 21.8555 8.26575 21.6333 8.90535C22.5925 8.24523 23.7524 7.8552 25.0043 7.84334C28.3477 7.81191 31.0842 10.4964 31.1157 13.8399C31.1461 17.0809 28.6238 19.7504 25.4237 19.9395C27.0732 21.0073 28.1729 22.8555 28.1928 24.9674C28.224 28.3107 25.5394 31.0462 22.1962 31.0778C18.8529 31.1092 16.1165 28.4246 16.0849 25.0813C16.0848 25.0752 16.0848 25.0688 16.0847 25.0627L16.0837 25.0617C16.0838 25.0681 16.0848 25.0749 16.0849 25.0813C16.1161 28.4246 13.4316 31.1602 10.0884 31.1916C6.74509 31.223 4.00964 28.5384 3.97802 25.1951C3.95817 23.0837 5.02168 21.2148 6.65013 20.116C3.44788 19.9862 0.876946 17.3649 0.846489 14.1244C0.815068 10.7811 3.49981 8.0457 6.84304 8.01407C8.09456 8.0023 9.26117 8.37099 10.2325 9.01253C9.99844 8.37734 9.86748 7.69161 9.86075 6.97589C9.8295 3.63267 12.5141 0.897111 15.8573 0.865541Z" fill="#FFC0CB"/>
</svg>
