<svg width="28" height="28" viewBox="0 0 28 28" fill="none" xmlns="http://www.w3.org/2000/svg">
<path d="M13.2202 0.779696C16.1406 0.607458 18.6482 2.83511 18.8207 5.75547C18.8576 6.38042 18.7829 6.98652 18.6167 7.55478C19.4263 6.93672 20.4233 6.54628 21.5166 6.4818C24.4371 6.30965 26.9439 8.53713 27.1161 11.4576C27.2831 14.2889 25.1946 16.731 22.406 17.0347C23.894 17.8964 24.9352 19.4637 25.0441 21.3086C25.2163 24.2291 22.9886 26.7357 20.0682 26.9082C17.1477 27.0804 14.64 24.853 14.4677 21.9324C14.4674 21.9269 14.467 21.9213 14.4667 21.9158L14.4657 21.9149C14.4661 21.9207 14.4674 21.9266 14.4677 21.9324C14.6399 24.8529 12.4123 27.3595 9.49187 27.5319C6.57132 27.7042 4.06362 25.4767 3.89136 22.5562C3.78257 20.7116 4.63191 19.0325 6.00775 18.0018C3.20331 18.0273 0.842686 15.8479 0.675733 13.017C0.503505 10.0966 2.73123 7.58995 5.65157 7.41748C6.74495 7.35299 7.78082 7.6244 8.65751 8.14313C8.42547 7.59814 8.28123 7.00446 8.24436 6.37924C8.07236 3.4589 10.2999 0.952028 13.2202 0.779696Z" fill="#FFC0CB"/>
<ellipse cx="14.0521" cy="14.8814" rx="3.53156" ry="3.53157" transform="rotate(-3.37524 14.0521 14.8814)" fill="#FFE066"/>
</svg>
