<svg width="50" height="49" viewBox="0 0 50 49" fill="none" xmlns="http://www.w3.org/2000/svg">
<path d="M26.2471 5.25312C30.9408 4.97636 34.9704 8.55702 35.2472 13.2508C35.3065 14.2556 35.1873 15.2296 34.9199 16.1432C36.2211 15.1497 37.8229 14.5203 39.5802 14.4166C44.2738 14.1401 48.3035 17.7206 48.5803 22.4143C48.8486 26.9638 45.4926 30.8892 41.012 31.3784C43.4022 32.7635 45.075 35.282 45.2498 38.2462C45.5266 42.9399 41.9458 46.9694 37.2522 47.2464C32.5584 47.5232 28.5289 43.9425 28.252 39.2487C28.2515 39.24 28.251 39.2312 28.2505 39.2224L28.2494 39.2215C28.25 39.2305 28.2515 39.2397 28.252 39.2487C28.5287 43.9424 24.948 47.972 20.2544 48.2489C15.5606 48.5257 11.5311 44.9449 11.2542 40.2512C11.0794 37.2867 12.4442 34.5883 14.6554 32.9318C10.1482 32.973 6.35425 29.4701 6.08583 24.9205C5.80901 20.2267 9.38972 16.1972 14.0835 15.9204C15.8411 15.8167 17.5054 16.2541 18.9145 17.0882C18.5414 16.212 18.3087 15.2585 18.2494 14.2533C17.9726 9.55946 21.5533 5.52995 26.2471 5.25312Z" fill="#FFC0CB"/>
<ellipse cx="27.5837" cy="27.9166" rx="5.67574" ry="5.67576" transform="rotate(-3.37524 27.5837 27.9166)" fill="#FFE066"/>
<path d="M15.4709 32.8581C15.4709 32.8581 13.0181 35.4244 11.1161 36.6277C9.71413 37.5147 8.87536 37.9845 7.29794 38.492C6.0561 38.8915 5.31234 39.007 4.0441 39.1447C2.77586 39.2824 0.802849 39.1972 0.802849 39.1972C0.802849 39.1972 2.30934 37.6877 3.27869 36.8584C4.24804 36.0291 4.70051 35.5729 5.7672 34.95C7.19671 34.1152 8.13467 33.86 9.74139 33.4466C11.921 32.886 15.4709 32.8581 15.4709 32.8581Z" fill="#77BC6F"/>
<path d="M39.6804 1.60163C39.6804 1.60163 39.9959 5.13758 39.6486 7.36122C39.3926 9.00039 39.1937 9.94096 38.5366 11.4622C38.0193 12.6598 37.6164 13.2955 36.8847 14.3405C36.153 15.3855 34.7894 16.814 34.7894 16.814C34.7894 16.814 34.6458 14.6862 34.6602 13.4105C34.6746 12.1349 34.6294 11.494 34.8632 10.2811C35.1766 8.65565 35.6023 7.78173 36.3496 6.30051C37.3633 4.29114 39.6804 1.60163 39.6804 1.60163Z" fill="#B0E4AA"/>
</svg>
