<svg width="32" height="43" viewBox="0 0 32 43" fill="none" xmlns="http://www.w3.org/2000/svg">
<path d="M15.1085 11.891C18.4461 11.6942 21.312 14.2402 21.5091 17.5778C21.5512 18.292 21.4662 18.9847 21.2763 19.6341C22.2015 18.9278 23.3412 18.4813 24.5906 18.4076C27.9282 18.211 30.7933 20.7568 30.9903 24.0944C31.1811 27.3294 28.7951 30.121 25.6092 30.4691C27.3086 31.4542 28.4974 33.2453 28.6217 35.353C28.8184 38.6906 26.2725 41.5556 22.9349 41.7526C19.5971 41.9494 16.7312 39.4035 16.5343 36.0658C16.5339 36.0597 16.5335 36.0534 16.5332 36.0473L16.5321 36.0464C16.5325 36.0528 16.5339 36.0594 16.5343 36.0658C16.731 39.4036 14.1852 42.2686 10.8475 42.4655C7.50978 42.6622 4.64479 40.1163 4.44784 36.7787C4.32355 34.6713 5.29291 32.7527 6.8644 31.5746C3.66002 31.603 0.963038 29.1112 0.772266 25.8765C0.5755 22.5389 3.1215 19.6739 6.45907 19.4769C7.70827 19.4032 8.89195 19.713 9.89369 20.3054C9.62878 19.6829 9.46383 19.0048 9.42171 18.2907C9.22514 14.9532 11.7711 12.0881 15.1085 11.891Z" fill="white"/>
<ellipse cx="16.0596" cy="28.0074" rx="4.03606" ry="4.03609" transform="rotate(-3.37524 16.0596 28.0074)" fill="#FFE066"/>
<path d="M29.9895 7.08596C29.9895 7.08596 29.4023 10.587 28.5049 12.651C27.8434 14.1725 27.4135 15.0324 26.3937 16.3384C25.5908 17.3667 25.0405 17.8801 24.0687 18.7065C23.0969 19.533 21.4168 20.571 21.4168 20.571C21.4168 20.571 21.815 18.4758 22.151 17.2452C22.4869 16.0145 22.605 15.383 23.1374 14.2683C23.851 12.7746 24.4835 12.0365 25.5804 10.7919C27.0685 9.10345 29.9895 7.08596 29.9895 7.08596Z" fill="#77BC6F"/>
<path d="M23.9398 1.05139C23.9398 1.05139 24.8003 4.49553 24.8023 6.74612C24.8038 8.40515 24.7533 9.36521 24.3403 10.97C24.0151 12.2333 23.7157 12.9239 23.1551 14.0698C22.5944 15.2157 21.469 16.8385 21.469 16.8385C21.469 16.8385 20.9969 14.7588 20.8132 13.4964C20.6295 12.234 20.4853 11.6078 20.5281 10.3733C20.5854 8.71892 20.8703 7.78953 21.3786 6.21029C22.0682 4.06793 23.9398 1.05139 23.9398 1.05139Z" fill="#095600"/>
</svg>
