<svg width="42" height="42" viewBox="0 0 42 42" fill="none" xmlns="http://www.w3.org/2000/svg">
<path d="M19.6222 1.15719C23.9567 0.90177 27.678 4.2084 27.9337 8.54296C27.9885 9.47122 27.8776 10.3709 27.6305 11.2149C28.8323 10.297 30.3115 9.71556 31.9347 9.61982C36.2694 9.36417 39.9906 12.6709 40.2463 17.0056C40.494 21.207 37.3954 24.8321 33.2577 25.2839C35.4648 26.5631 37.0095 28.8889 37.171 31.6261C37.4267 35.9607 34.1198 39.6818 29.7853 39.9376C25.4505 40.1933 21.7294 36.8866 21.4737 32.5519C21.4732 32.5437 21.4727 32.5356 21.4723 32.5275L21.4712 32.5266C21.4718 32.535 21.4732 32.5434 21.4737 32.5519C21.7293 36.8865 18.4224 40.6075 14.0879 40.8634C9.75321 41.1191 6.03202 37.8124 5.77637 33.4776C5.61506 30.7407 6.87415 28.2494 8.91519 26.7196C4.7535 26.7567 1.2507 23.5211 1.00293 19.3201C0.747286 14.9853 4.054 11.2641 8.38871 11.0085C10.0116 10.9128 11.5483 11.3166 12.8496 12.0866C12.5051 11.2776 12.2911 10.3969 12.2364 9.46875C11.9808 5.13404 15.2875 1.41284 19.6222 1.15719Z" fill="white"/>
<ellipse cx="20.8563" cy="22.0871" rx="5.24156" ry="5.24158" transform="rotate(-3.37524 20.8563 22.0871)" fill="#FFE066"/>
</svg>
