<svg width="70" height="74" viewBox="0 0 70 74" fill="none" xmlns="http://www.w3.org/2000/svg">
<g filter="url(#filter0_d_32_184)">
<path d="M51.306 25.0491C51.306 25.0491 47.9031 23.9728 43.7054 22.6452C39.5078 21.3176 36.1049 20.2414 36.1049 20.2414C32.9186 30.3158 33.7385 39.559 37.9362 40.8866C42.1339 42.2142 48.1198 35.1235 51.306 25.0491Z" fill="#F9F9F9"/>
<path d="M36.1049 20.2414C36.1049 20.2414 39.5078 21.3176 43.7054 22.6452C47.9031 23.9728 51.306 25.049 51.306 25.049C54.4923 14.9746 53.6723 5.73144 49.4747 4.40383C45.277 3.07623 39.2911 10.1669 36.1049 20.2414Z" fill="#F9F9F9"/>
<path d="M15.6975 25.0491C15.6975 25.0491 19.1004 23.9728 23.298 22.6452C27.4957 21.3176 30.8986 20.2414 30.8986 20.2414C34.0849 30.3158 33.2649 39.559 29.0673 40.8866C24.8696 42.2142 18.8837 35.1235 15.6975 25.0491Z" fill="#F9F9F9"/>
<path d="M30.8986 20.2414C30.8986 20.2414 27.4957 21.3176 23.298 22.6452C19.1003 23.9728 15.6974 25.049 15.6974 25.049C12.5112 14.9746 13.3311 5.73144 17.5288 4.40383C21.7265 3.07623 27.7123 10.1669 30.8986 20.2414Z" fill="#F9F9F9"/>
<path d="M52.5815 44.4752C52.5815 44.4752 49.1786 45.5514 44.9809 46.879C40.7832 48.2066 37.3803 49.2829 37.3803 49.2829C34.1941 39.2084 35.014 29.9653 39.2117 28.6377C43.4094 27.3101 49.3952 34.4008 52.5815 44.4752Z" fill="#F9F9F9"/>
<path d="M37.3803 49.2829C37.3803 49.2829 40.7832 48.2066 44.9809 46.879C49.1786 45.5514 52.5815 44.4752 52.5815 44.4752C55.7677 54.5496 54.9478 63.7928 50.7501 65.1204C46.5525 66.448 40.5666 59.3573 37.3803 49.2829Z" fill="#F9F9F9"/>
<path d="M16.9729 44.4752C16.9729 44.4752 20.3758 45.5514 24.5735 46.879C28.7712 48.2066 32.1741 49.2829 32.1741 49.2829C35.3603 39.2084 34.5404 29.9653 30.3427 28.6377C26.1451 27.3101 20.1592 34.4008 16.9729 44.4752Z" fill="#F9F9F9"/>
<path d="M32.1741 49.2829C32.1741 49.2829 28.7712 48.2066 24.5735 46.879C20.3758 45.5514 16.9729 44.4752 16.9729 44.4752C13.7867 54.5496 14.6066 63.7928 18.8043 65.1204C23.002 66.448 28.9878 59.3573 32.1741 49.2829Z" fill="#F9F9F9"/>
<path d="M42.4525 21.7697C42.4525 21.7697 38.8835 21.7697 34.4809 21.7697C30.0783 21.7697 26.5093 21.7697 26.5093 21.7697C26.5093 11.2034 30.0783 2.63773 34.4809 2.63773C38.8835 2.63773 42.4525 11.2034 42.4525 21.7697Z" fill="white"/>
<path d="M26.5093 21.7697C26.5093 21.7697 30.0783 21.7697 34.4809 21.7697C38.8835 21.7697 42.4526 21.7697 42.4526 21.7697C42.4526 32.3359 38.8835 40.9016 34.4809 40.9016C30.0783 40.9016 26.5093 32.3359 26.5093 21.7697Z" fill="white"/>
<path d="M17.3365 35.7748C17.3365 35.7748 19.1941 32.7272 21.4854 28.9679C23.7768 25.2085 25.6343 22.161 25.6343 22.161C34.6567 27.6603 40.1133 35.1658 37.822 38.9252C35.5306 42.6845 26.359 41.2741 17.3365 35.7748Z" fill="white"/>
<path d="M25.6343 22.161C25.6343 22.161 23.7768 25.2086 21.4854 28.9679C19.1941 32.7273 17.3366 35.7748 17.3366 35.7748C8.31413 30.2755 2.85751 22.77 5.14888 19.0106C7.44024 15.2513 16.6119 16.6617 25.6343 22.161Z" fill="white"/>
<path d="M51.7813 35.7748C51.7813 35.7748 49.9238 32.7272 47.6324 28.9679C45.3411 25.2085 43.4836 22.161 43.4836 22.161C34.4611 27.6603 29.0045 35.1658 31.2959 38.9252C33.5872 42.6845 42.7589 41.2741 51.7813 35.7748Z" fill="white"/>
<path d="M43.4835 22.161C43.4835 22.161 45.3411 25.2086 47.6324 28.9679C49.9238 32.7273 51.7813 35.7748 51.7813 35.7748C60.8037 30.2755 66.2603 22.77 63.969 19.0106C61.6776 15.2513 52.506 16.6617 43.4835 22.161Z" fill="white"/>
<path d="M43.728 48.283C43.728 48.283 40.159 48.283 35.7564 48.283C31.3538 48.283 27.7847 48.283 27.7847 48.283C27.7847 58.8493 31.3538 67.415 35.7564 67.415C40.159 67.415 43.728 58.8493 43.728 48.283Z" fill="white"/>
<path d="M27.7847 48.283C27.7847 48.283 31.3538 48.283 35.7564 48.283C40.159 48.283 43.728 48.283 43.728 48.283C43.728 37.7167 40.159 29.1511 35.7564 29.1511C31.3538 29.1511 27.7847 37.7167 27.7847 48.283Z" fill="white"/>
<path d="M18.612 34.2779C18.612 34.2779 20.4695 37.3254 22.7609 41.0848C25.0523 44.8441 26.9098 47.8917 26.9098 47.8917C35.9322 42.3924 41.3888 34.8868 39.0975 31.1275C36.8061 27.3681 27.6345 28.7786 18.612 34.2779Z" fill="white"/>
<path d="M26.9098 47.8917C26.9098 47.8917 25.0523 44.8442 22.7609 41.0848C20.4696 37.3255 18.6121 34.2779 18.6121 34.2779C9.58961 39.7772 4.133 47.2828 6.42436 51.0421C8.71572 54.8015 17.8874 53.391 26.9098 47.8917Z" fill="white"/>
<path d="M53.0568 34.2779C53.0568 34.2779 51.1993 37.3254 48.9079 41.0848C46.6165 44.8441 44.759 47.8917 44.759 47.8917C35.7366 42.3924 30.28 34.8868 32.5713 31.1275C34.8627 27.3681 44.0343 28.7786 53.0568 34.2779Z" fill="white"/>
<path d="M44.759 47.8917C44.759 47.8917 46.6165 44.8442 48.9079 41.0848C51.1992 37.3255 53.0567 34.2779 53.0567 34.2779C62.0792 39.7772 67.5358 47.2828 65.2444 51.0421C62.9531 54.8015 53.7814 53.391 44.759 47.8917Z" fill="white"/>
<circle cx="34.162" cy="34.5243" r="6.37732" fill="#FFE066"/>
</g>
<defs>
<filter id="filter0_d_32_184" x="0.626236" y="0.637726" width="69.1408" height="72.7773" filterUnits="userSpaceOnUse" color-interpolation-filters="sRGB">
<feFlood flood-opacity="0" result="BackgroundImageFix"/>
<feColorMatrix in="SourceAlpha" type="matrix" values="0 0 0 0 0 0 0 0 0 0 0 0 0 0 0 0 0 0 127 0" result="hardAlpha"/>
<feOffset dy="2"/>
<feGaussianBlur stdDeviation="2"/>
<feComposite in2="hardAlpha" operator="out"/>
<feColorMatrix type="matrix" values="0 0 0 0 0 0 0 0 0 0 0 0 0 0 0 0 0 0 0.5 0"/>
<feBlend mode="normal" in2="BackgroundImageFix" result="effect1_dropShadow_32_184"/>
<feBlend mode="normal" in="SourceGraphic" in2="effect1_dropShadow_32_184" result="shape"/>
</filter>
</defs>
</svg>
