<svg width="30" height="30" viewBox="0 0 30 30" fill="none" xmlns="http://www.w3.org/2000/svg">
<rect x="2.35715" y="1.5" width="24.588" height="24.588" rx="3.5" stroke="white" stroke-width="3"/>
<path d="M19.0307 12.3031C19.4208 11.6657 20.3467 11.6657 20.7367 12.3031L27.7134 23.7053C28.1212 24.3717 27.6416 25.2272 26.8605 25.2272H12.907C12.1258 25.2272 11.6463 24.3717 12.054 23.7053L19.0307 12.3031Z" fill="white"/>
<path d="M8.60901 16.1166C9.00828 15.5659 9.82893 15.5659 10.2282 16.1166L16.4247 24.663C16.9041 25.3241 16.4317 26.25 15.6151 26.25H3.22209C2.40547 26.25 1.93315 25.3241 2.41249 24.663L8.60901 16.1166Z" fill="white"/>
<circle cx="9.06977" cy="7.50002" r="1.9485" stroke="white" stroke-width="3"/>
</svg>
